#!OML:ASF E:\Mandelcareful walks\Project 1\Capture day 1\Session 1\Subject1.ASF
:FULLY-SPECIFIED
:DEGREES
448
root 6.22759 15.3945 0.369513 -111.533 -85.0649 116.111
lowerback 19.4339 -1.42755 -1.42168
upperback 7.10268 -2.71835 -2.31052
thorax -3.2624 -1.53375 -1.04284
lowerneck -30.5608 2.27631 -0.644924
upperneck 24.4143 3.32473 0.440563
head 13.2411 1.42607 0.930602
rclavicle 2.48481e-014 3.89618e-014
rhumerus -69.0961 17.9195 -101.158
rradius 84.4414
rwrist -12.2498
rhand -29.3132 -6.49225
rfingers 7.12502
rthumb -2.65423 -36.4555
lclavicle 2.48481e-014 3.89618e-014
lhumerus -17.5783 -16.2963 82.989
lradius 53.1627
lwrist 19.6406
lhand -25.0363 -13.4946
lfingers 7.12502
lthumb 1.47649 16.48
rfemur -26.3393 -12.0162 2.27738
rtibia 53.6761
rfoot -24.3282 -8.79193
rtoes -14.726
lfemur -32.1537 12.3762 -12.0228
ltibia 56.9484
lfoot -22.3692 0.568335
ltoes -12.4857
449
root 6.22463 15.3946 0.365068 -112.883 -84.9469 117.356
lowerback 19.6717 -1.40556 -1.46293
upperback 6.97674 -2.70353 -2.328
thorax -3.51878 -1.52279 -1.03115
lowerneck -30.431 2.38405 -0.480243
upperneck 24.5737 3.46443 0.229938
head 13.2898 1.46775 0.848147
rclavicle -2.82274e-014 -4.03533e-014
rhumerus -69.3423 17.8834 -101.243
rradius 84.5074
rwrist -12.1347
rhand -29.0969 -6.5815
rfingers 7.12502
rthumb -2.44534 -36.5472
lclavicle -2.82274e-014 -4.03533e-014
lhumerus -17.8839 -16.219 83.1026
lradius 53.3291
lwrist 19.5758
lhand -24.9959 -13.5194
lfingers 7.12502
lthumb 1.51555 16.455
rfemur -26.2805 -11.8948 2.19905
rtibia 53.7206
rfoot -24.4026 -8.65244
rtoes -14.8115
lfemur -31.9433 12.4218 -12.0407
ltibia 56.8989
lfoot -22.3546 0.654299
ltoes -12.3324
450
root 6.22014 15.3945 0.358968 -113.59 -84.7682 117.915
lowerback 19.1331 -1.36487 -1.43529
upperback 7.49746 -2.65791 -2.44702
thorax -2.69034 -1.51954 -1.21083
lowerneck -30.957 2.37283 -0.46958
upperneck 24.4771 3.45829 0.211666
head 13.3493 1.46458 0.844611
rclavicle 1.45113e-014 2.74323e-014
rhumerus -68.554 17.874 -101.101
rradius 84.4655
rwrist -12.0121
rhand -29.0565 -6.67535
rfingers 7.12502
rthumb -2.40629 -36.6415
lclavicle 1.45113e-014 2.74323e-014
lhumerus -17.0869 -16.2348 82.8096
lradius 53.3622
lwrist 19.5379
lhand -24.9154 -13.3197
lfingers 7.12502
lthumb 1.59326 16.6541
rfemur -26.1625 -11.811 2.02887
rtibia 53.7463
rfoot -24.4297 -8.53861
rtoes -14.3848
lfemur -31.6701 12.4488 -12.131
ltibia 56.8317
lfoot -22.3377 0.656052
ltoes -12.078
451
root 6.21878 15.3944 0.350856 -115.358 -84.6405 119.566
lowerback 19.6967 -1.32573 -1.44052
upperback 7.21347 -2.61931 -2.44638
thorax -3.28373 -1.49145 -1.19235
lowerneck -31.1823 2.33832 -0.491047
upperneck 25.0193 3.43916 0.162167
head 13.6192 1.43462 0.834467
rclavicle -4.37326e-014 -2.34566e-014
rhumerus -69.1083 17.7848 -101.186
rradius 84.5858
rwrist -11.9702
rhand -29.1414 -6.49418
rfingers 7.12502
rthumb -2.48831 -36.4594
lclavicle -4.37326e-014 -2.34566e-014
lhumerus -17.6346 -16.2635 82.9945
lradius 53.5248
lwrist 19.5482
lhand -25.0258 -13.4261
lfingers 7.12502
lthumb 1.48667 16.5485
rfemur -26.1472 -11.6131 2.01478
rtibia 53.7801
rfoot -24.4088 -8.60227
rtoes -14.2669
lfemur -31.4504 12.5682 -12.1039
ltibia 56.7805
lfoot -22.3809 0.566813
ltoes -11.871
452
root 6.22251 15.3918 0.343579 -117.642 -84.6731 121.802
lowerback 19.9978 -1.27889 -1.2872
upperback 7.07807 -2.53209 -2.38489
thorax -3.58601 -1.44304 -1.22195
lowerneck -30.9852 2.37819 -0.428864
upperneck 25.1063 3.5606 -0.138006
head 13.6269 1.44519 0.726842
rclavicle 3.22031e-014 -6.16232e-015
rhumerus -69.3871 17.7067 -101.112
rradius 84.7723
rwrist -12.0645
rhand -28.9566 -6.8172
rfingers 7.12502
rthumb -2.30981 -36.7844
lclavicle 3.22031e-014 -6.16232e-015
lhumerus -17.8692 -16.4004 83.1371
lradius 53.6034
lwrist 19.6065
lhand -25.1654 -13.7052
lfingers 7.12502
lthumb 1.35178 16.2702
rfemur -26.2155 -11.428 2.21044
rtibia 53.8315
rfoot -24.3836 -8.65194
rtoes -14.4223
lfemur -31.374 12.7049 -11.9026
ltibia 56.7724
lfoot -22.4299 0.455546
ltoes -11.9049
453
root 6.22474 15.3867 0.339272 -118.4 -84.6762 122.558
lowerback 20.0125 -1.2625 -1.18479
upperback 7.05449 -2.48803 -2.3447
thorax -3.62044 -1.41976 -1.24634
lowerneck -30.6332 2.28347 -0.749425
upperneck 24.7755 3.47987 0.14518
head 13.4084 1.42972 0.86683
rclavicle 1.03368e-014 4.96962e-015
rhumerus -69.458 17.6048 -100.971
rradius 84.928
rwrist -12.0678
rhand -28.8543 -7.1534
rfingers 7.12502
rthumb -2.21104 -37.1217
lclavicle 1.03368e-014 4.96962e-015
lhumerus -17.8525 -16.5056 83.2261
lradius 53.565
lwrist 19.5828
lhand -25.2056 -13.6266
lfingers 7.12502
lthumb 1.31295 16.3491
rfemur -26.2723 -11.4482 2.26863
rtibia 53.8896
rfoot -24.3504 -8.60528
rtoes -14.5046
lfemur -31.375 12.7612 -11.8338
ltibia 56.7886
lfoot -22.4308 0.456499
ltoes -12.0095
454
root 6.22445 15.3845 0.336785 -118.51 -84.5965 122.638
lowerback 19.9637 -1.27103 -1.16452
upperback 7.08452 -2.49638 -2.36146
thorax -3.56485 -1.42474 -1.27567
lowerneck -30.3397 2.30845 -0.845454
upperneck 24.5057 3.52706 0.22921
head 13.2367 1.46005 0.917265
rclavicle -8.54774e-015 2.14687e-014
rhumerus -69.4132 17.5292 -100.938
rradius 84.973
rwrist -12.0605
rhand -28.9369 -7.23778
rfingers 7.12502
rthumb -2.29076 -37.2052
lclavicle -8.54774e-015 2.14687e-014
lhumerus -17.7888 -16.4486 83.2376
lradius 53.5918
lwrist 19.4117
lhand -25.2223 -13.1252
lfingers 7.12502
lthumb 1.29687 16.8506
rfemur -26.281 -11.493 2.1868
rtibia 53.9381
rfoot -24.3476 -8.49159
rtoes -14.4692
lfemur -31.3156 12.7481 -11.8809
ltibia 56.7888
lfoot -22.4389 0.56071
ltoes -12.1175
455
root 6.22778 15.3859 0.332951 -118.85 -84.5414 122.984
lowerback 19.9349 -1.31307 -1.12674
upperback 7.12014 -2.54795 -2.40521
thorax -3.51621 -1.45097 -1.33345
lowerneck -30.2517 2.44774 -0.603836
upperneck 24.3904 3.68688 -0.014272
head 13.1828 1.51912 0.810569
rclavicle -7.45443e-015 1.82882e-014
rhumerus -69.2885 17.5158 -101.048
rradius 84.8985
rwrist -12.1295
rhand -28.9961 -7.20897
rfingers 7.12502
rthumb -2.34791 -37.1758
lclavicle -7.45443e-015 1.82882e-014
lhumerus -17.75 -16.3703 83.1455
lradius 53.6428
lwrist 19.1563
lhand -25.4311 -12.8201
lfingers 7.12502
lthumb 1.09518 17.1569
rfemur -26.3486 -11.4793 2.17262
rtibia 53.9707
rfoot -24.4021 -8.40871
rtoes -14.2154
lfemur -31.2942 12.6988 -11.8922
ltibia 56.7623
lfoot -22.4792 0.708577
ltoes -12.4251
456
root 6.23437 15.388 0.326003 -118.402 -84.4363 122.65
lowerback 19.7916 -1.36084 -1.1771
upperback 7.15673 -2.6216 -2.49064
thorax -3.40654 -1.48831 -1.38402
lowerneck -30.4189 2.59417 -0.245752
upperneck 24.4552 3.83604 -0.347643
head 13.2572 1.56663 0.653504
rclavicle 8.94531e-016 3.18055e-014
rhumerus -69.1093 17.5057 -101.2
rradius 84.7672
rwrist -12.1283
rhand -29.1681 -6.82841
rfingers 7.12502
rthumb -2.51406 -36.7933
lclavicle 8.94531e-016 3.18055e-014
lhumerus -17.6571 -16.3821 82.9854
lradius 53.5916
lwrist 18.9149
lhand -25.8922 -13.0128
lfingers 7.12502
lthumb 0.649852 16.9659
rfemur -26.5404 -11.5313 2.12413
rtibia 53.9972
rfoot -24.4026 -8.41407
rtoes -14.0666
lfemur -31.4168 12.6642 -12.008
ltibia 56.7091
lfoot -22.4908 0.749628
ltoes -12.7301
457
root 6.24002 15.3917 0.31687 -118.29 -84.3701 122.67
lowerback 19.597 -1.37603 -1.1973
upperback 7.17715 -2.64015 -2.52042
thorax -3.28542 -1.49762 -1.40614
lowerneck -30.5387 2.60789 -0.173058
upperneck 24.5156 3.8495 -0.429251
head 13.3086 1.56545 0.614496
rclavicle 6.55989e-015 4.37326e-015
rhumerus -69.0246 17.4279 -101.211
rradius 84.7841
rwrist -12.137
rhand -29.4535 -6.41033
rfingers 7.12502
rthumb -2.78964 -36.3718
lclavicle 6.55989e-015 4.37326e-015
lhumerus -17.5338 -16.4413 82.9173
lradius 53.482
lwrist 18.785
lhand -26.3802 -13.7296
lfingers 7.12502
lthumb 0.178513 16.2501
rfemur -26.7547 -11.5439 2.14467
rtibia 54.0233
rfoot -24.3497 -8.4597
rtoes -14.1664
lfemur -31.5562 12.7025 -12.062
ltibia 56.6336
lfoot -22.4415 0.676537
ltoes -12.9048
458
root 6.24144 15.3932 0.310027 -118.638 -84.2884 123.009
lowerback 19.5262 -1.39694 -1.20392
upperback 7.22489 -2.66766 -2.50504
thorax -3.19729 -1.51308 -1.38311
lowerneck -30.4664 2.55869 -0.342958
upperneck 24.3536 3.84349 -0.385295
head 13.2232 1.55651 0.655492
rclavicle -2.68359e-015 1.88845e-014
rhumerus -69.0115 17.5008 -101.101
rradius 84.912
rwrist -12.2653
rhand -29.7185 -6.24187
rfingers 7.12502
rthumb -3.04558 -36.1999
lclavicle -2.68359e-015 1.88845e-014
lhumerus -17.4498 -16.4098 82.9313
lradius 53.3933
lwrist 18.787
lhand -26.8952 -14.568
lfingers 7.12502
lthumb -0.318841 15.4115
rfemur -26.8008 -11.5063 2.10974
rtibia 54.0479
rfoot -24.3316 -8.44363
rtoes -14.3371
lfemur -31.4771 12.7277 -12.0851
ltibia 56.5424
lfoot -22.3945 0.666301
ltoes -12.8063
459
root 6.24128 15.3903 0.304202 -118.481 -84.072 122.738
lowerback 19.5517 -1.43138 -1.3705
upperback 7.31245 -2.75231 -2.53761
thorax -3.11253 -1.56071 -1.30607
lowerneck -30.3446 2.54079 -0.495491
upperneck 24.1108 3.87724 -0.359067
head 13.0964 1.56603 0.69276
rclavicle -2.5842e-015 2.78299e-014
rhumerus -68.9337 17.7408 -101.072
rradius 84.8831
rwrist -12.2459
rhand -29.9491 -6.15361
rfingers 7.12502
rthumb -3.26826 -36.1083
lclavicle -2.5842e-015 2.78299e-014
lhumerus -17.3796 -16.1486 82.9293
lradius 53.3534
lwrist 18.7093
lhand -27.3168 -14.8164
lfingers 7.12502
lthumb -0.726112 15.1621
rfemur -26.7115 -11.4859 1.87759
rtibia 54.0776
rfoot -24.3413 -8.35884
rtoes -14.533
lfemur -31.2443 12.7414 -12.2492
ltibia 56.4428
lfoot -22.3344 0.672806
ltoes -12.473
460
root 6.24352 15.3922 0.295121 -118.263 -83.8821 122.472
lowerback 19.5801 -1.43759 -1.52555
upperback 7.33146 -2.79466 -2.5745
thorax -3.1024 -1.58464 -1.24782
lowerneck -30.1428 2.40699 -0.697533
upperneck 23.8956 3.74313 -0.252105
head 12.9642 1.50963 0.736076
rclavicle 3.57812e-014 2.64384e-014
rhumerus -68.8538 17.7563 -101.083
rradius 84.786
rwrist -12.0658
rhand -30.1114 -6.08191
rfingers 7.12502
rthumb -3.425 -36.0341
lclavicle 3.57812e-014 2.64384e-014
lhumerus -17.3145 -15.9345 82.9626
lradius 53.2634
lwrist 18.5552
lhand -27.4517 -14.5445
lfingers 7.12502
lthumb -0.856324 15.4335
rfemur -26.6927 -11.433 1.70589
rtibia 54.1133
rfoot -24.3755 -8.31377
rtoes -14.4679
lfemur -31.0986 12.8105 -12.4016
ltibia 56.3395
lfoot -22.2783 0.664156
ltoes -12.435
461
root 6.2537 15.3986 0.283323 -118.118 -83.8316 122.396
lowerback 19.7211 -1.45204 -1.55023
upperback 7.21102 -2.81834 -2.57403
thorax -3.30316 -1.59199 -1.22097
lowerneck -29.9522 2.10763 -0.953404
upperneck 23.7611 3.37838 -0.0730267
head 12.8668 1.35606 0.773163
rclavicle -2.32578e-014 -5.56597e-015
rhumerus -68.9049 17.59 -101.063
rradius 84.8462
rwrist -12.1314
rhand -30.0139 -6.30443
rfingers 7.12502
rthumb -3.33088 -36.2582
lclavicle -2.32578e-014 -5.56597e-015
lhumerus -17.3881 -15.8789 83.0094
lradius 53.1932
lwrist 18.5459
lhand -27.2266 -14.3755
lfingers 7.12502
lthumb -0.63894 15.6033
rfemur -26.835 -11.387 1.73745
rtibia 54.1557
rfoot -24.3901 -8.39958
rtoes -14.4886
lfemur -31.1442 12.8782 -12.4324
ltibia 56.2335
lfoot -22.2031 0.690829
ltoes -12.5377
